<?xml version="1.0" encoding="utf-8"?>
<!-- Generator: Adobe Illustrator 26.2.1, SVG Export Plug-In . SVG Version: 6.00 Build 0)  -->
<svg version="1.1" id="Camada_1" xmlns="http://www.w3.org/2000/svg" xmlns:xlink="http://www.w3.org/1999/xlink" x="0px" y="0px"
	 viewBox="0 0 841.89 184.98" style="enable-background:new 0 0 841.89 184.98;" xml:space="preserve">
<style type="text/css">
	.st0{fill:#272727;}
</style>
<g>
	<path class="st0" d="M13.96,159.68L35.37,24.94h66.72l-5.17,32.67H67.67l-3.05,19.47h25.29l-4.89,31.75H59.55l-8.12,50.85H13.96z"
		/>
	<path class="st0" d="M91.85,159.68l21.32-134.74h37.65l-21.41,134.74H91.85z"/>
	<path class="st0" d="M146.21,159.68l21.41-134.74h31.75c19.93,0,33.67,2.62,41.21,7.84c7.54,5.23,11.31,14.15,11.31,26.76
		c0,11.01-2.39,20.06-7.15,27.13c-4.77,7.08-11.64,11.75-20.63,14.03l16.61,58.97h-39.87l-8.49-54.45l-8.49,54.45H146.21z
		 M195.76,85.02h2.03c5.72,0,10.12-1.8,13.2-5.4c3.08-3.6,4.61-8.78,4.61-15.55c0-3.88-0.98-6.74-2.95-8.58
		c-1.97-1.85-5.02-2.77-9.14-2.77c-0.25,0-0.66,0.03-1.25,0.09c-0.59,0.06-1.06,0.09-1.43,0.09L195.76,85.02z"/>
	<path class="st0" d="M250.58,118.24c4.18,3.51,8.58,6.21,13.2,8.12c4.61,1.91,9.04,2.86,13.29,2.86c3.75,0,6.74-1.03,8.95-3.09
		c2.21-2.06,3.32-4.88,3.32-8.44c0-3.08-0.92-6.14-2.77-9.18c-1.85-3.04-5.41-7.09-10.71-12.14c-6.4-6.21-10.8-11.69-13.2-16.43
		c-2.4-4.74-3.6-9.97-3.6-15.69c0-12.86,4.07-23.07,12.23-30.64c8.15-7.57,19.21-11.35,33.18-11.35c5.66,0,11.04,0.63,16.15,1.89
		c5.11,1.26,10.3,3.22,15.6,5.86l-5.35,32.85c-4.06-2.83-8.01-4.98-11.86-6.46c-3.85-1.48-7.52-2.21-11.03-2.21
		c-3.14,0-5.62,0.82-7.43,2.45c-1.82,1.63-2.72,3.86-2.72,6.69c0,3.82,3.48,9.17,10.43,16.06c0.86,0.86,1.54,1.54,2.03,2.03
		c7.01,6.89,11.63,12.8,13.84,17.72c2.21,4.92,3.32,10.61,3.32,17.07c0,14.4-4.45,25.75-13.34,34.05
		c-8.89,8.31-21.06,12.46-36.5,12.46c-6.58,0-12.81-0.78-18.69-2.35c-5.88-1.57-10.81-3.74-14.81-6.51L250.58,118.24z"/>
	<path class="st0" d="M384.58,159.68h-37.84l15.87-100.59h-22.43l5.44-34.15h82.6l-5.44,34.15h-22.33L384.58,159.68z"/>
	<path class="st0" d="M519.78,159.68h-37.84l15.87-100.59h-22.43l5.44-34.15h82.6l-5.44,34.15h-22.33L519.78,159.68z"/>
	<path class="st0" d="M554.21,159.68l21.41-134.74h66.72l-5.17,32.67H608.1l-2.86,17.17h26.3l-4.89,31.56h-26.3l-3.05,18.55h29.16
		l-5.54,34.79H554.21z"/>
	<path class="st0" d="M720.69,59.54c-2.21-1.17-4.31-2-6.28-2.49c-1.97-0.49-3.97-0.74-6-0.74c-8.8,0-15.87,4.2-21.23,12.6
		c-5.35,8.4-8.03,19.55-8.03,33.45c0,8.92,1.62,15.54,4.85,19.84c3.23,4.31,8.17,6.46,14.81,6.46c1.6,0,3.34-0.17,5.21-0.51
		c1.88-0.34,3.86-0.85,5.95-1.52l-5.72,32.48c-2.58,1.05-5.38,1.81-8.4,2.31c-3.02,0.49-6.46,0.74-10.34,0.74
		c-15.2,0-26.81-4.43-34.84-13.29c-8.03-8.86-12.04-21.72-12.04-38.58c0-26.39,6.09-47.63,18.27-63.72
		c12.18-16.09,28.33-24.13,48.45-24.13c3.69,0,7.29,0.32,10.8,0.97c3.51,0.65,6.98,1.58,10.43,2.81L720.69,59.54z"/>
	<path class="st0" d="M715.99,159.68L737.4,24.94h37.56l-7.75,48.73h15.5l7.57-48.73h37.65l-21.41,134.74h-37.56l8.31-52.7h-15.32
		l-8.31,52.7H715.99z"/>
</g>
</svg>
